<svg xmlns="http://www.w3.org/2000/svg" width="256" height="256"><path fill="#1976D2" fill-opacity=".016" fill-rule="evenodd" d="M0 128.004v128.004l128.25-.254 128.25-.254.254-127.75L257.008 0H0zm.485.496c0 70.4.119 99.053.265 63.672s.146-92.98 0-128S.485 58.1.485 128.5"/><path fill="#1976D2" fill-opacity=".442" fill-rule="evenodd" d="M118.853 4.279C110.079 9.283 59.906 39.95 54 43.92c-1.375.924-8.509 5.247-15.852 9.607-19.64 11.66-18.123 8.273-18.275 40.8-.07 14.945-.226 41.123-.346 58.173-.121 17.05.18 32.693.669 34.763.871 3.69 6.093 10.737 7.956 10.737 1.057 0 38.004-22.27 41.733-25.155 1.312-1.015 2.864-1.845 3.45-1.845 1.748 0-.479 1.768-7.433 5.9-28.043 16.662-36.933 22.477-35.842 23.443.242.214 6.74 4.113 14.44 8.663s15.678 9.335 17.729 10.633c2.05 1.299 3.942 2.361 4.204 2.361.726 0 23.501 13.789 28.23 17.092 2.29 1.6 4.446 2.908 4.791 2.908s1.846.839 3.336 1.865c7.717 5.313 20.551 12.135 22.829 12.135 1.425 0 7.156-2.758 12.736-6.13s15.995-9.5 23.145-13.62c37.688-21.713 61.5-35.961 61.5-36.798 0-.366-14.033-8.375-21-11.986-3.025-1.568-9.174-5.021-13.664-7.673s-9.773-5.495-11.74-6.317c-3.304-1.381-3.719-1.353-5.442.37-1.025 1.025-2.942 2.146-4.259 2.49s-7.57 3.615-13.895 7.269-14.987 8.661-19.25 11.126l-7.75 4.482-.079 28.144c-.043 15.478-.304 27.468-.579 26.643s-.736-2.175-1.024-3c-.609-1.744-.402-17.611.252-19.335.243-.641-2.085-2.483-5.173-4.095-5.011-2.614-5.714-2.754-6.529-1.299-1.477 2.64-3.902 4.729-5.489 4.729-2.607 0-7.379-2.999-7.379-4.636 0-1.263.356-1.165 1.75.483.963 1.137 2.945 2.35 4.406 2.695 2.248.531 3.026.083 5.06-2.909l2.403-3.537 3.941 2.421c6.978 4.287 6.978 4.286 6.641-11.812l-.299-14.299-20.159-11.759c-13.827-8.066-20.8-11.597-22.201-11.242-1.123.284-6.005 3.007-10.849 6.052-4.843 3.044-8.531 5.089-8.194 4.545s4.439-3.329 9.115-6.187 8.705-5.522 8.951-5.92-1.122-1.694-3.041-2.88C70.366 167.591 70 166.33 70 146.074v-18.117l-2.47-1.125c-1.896-.864-2.832-.826-4.023.162-1.324 1.099-1.451 1.024-.864-.506.614-1.599.233-1.735-3.477-1.237-2.706.363-3.946.201-3.536-.461.655-1.061 8.527-.591 11.612.693 2.65 1.103 3.075-1.342 2.274-13.093l-.72-10.554-3.648-2.485c-6.452-4.396-30.508-18.532-34.981-20.557-2.383-1.078-4.116-2.178-3.851-2.443.661-.661 11.44 4.864 20.608 10.562C65.922 98.722 71 100.679 71 96.195c0-1.845-10.841-9.482-24.25-17.082-3.162-1.793-5.75-3.49-5.75-3.772s2.812 1.054 6.25 2.97c3.437 1.916 8.275 4.501 10.75 5.744 2.475 1.244 7.065 3.784 10.201 5.646l5.701 3.384 5.299-3.42c7.141-4.61 29.595-17.987 38.549-22.966l7.25-4.032V44.833c0-9.808-.36-17.833-.8-17.833s-1.441.563-2.223 1.25c-.783.688-.686.35.216-.75 1.234-1.505 1.787-5.034 2.231-14.25.326-6.738.475-12.237.334-12.221-.142.016-2.799 1.479-5.905 3.25M126 18.402v16.402l3 1.046c1.65.575 3 1.283 3 1.573s-1.154.089-2.565-.448c-1.411-.536-2.761-.975-3-.975-.921 0-.381 25.232.578 27.024.557 1.041 4.044 3.564 7.75 5.608 13.257 7.311 34.822 19.648 39.559 22.632 4.815 3.032 4.829 3.034 8.5 1.307 4.123-1.939 27.798-15.497 38.987-22.326 4.02-2.453 7.484-4.286 7.697-4.072.549.549-7.181 5.506-20.006 12.828a2834 2834 0 0 0-20.25 11.686L180 96.092v24.817l6.75.349 6.75.35-6.75.196L180 122l-.15 8.5c-.083 4.675-.195 9.738-.25 11.25-.099 2.734-.054 2.753 7.9 3.317l8 .566-7.75.184L180 146v9.423c0 8.637-.212 9.676-2.545 12.448l-2.545 3.024 2.295 1.401c2.46 1.501 17.847 9.994 29.295 16.168 3.85 2.077 9.836 5.59 13.303 7.808l6.302 4.031 3.881-3.789c6.381-6.231 6.407-6.557 5.728-71.585-.625-59.803-.807-62.189-4.866-63.477-1.016-.323-1.848-.996-1.848-1.496s-1.687-1.75-3.75-2.777-10.5-5.824-18.75-10.659-17.025-9.92-19.5-11.299c-4.972-2.77-44.616-25.765-47-27.261C135.698 5.259 128.881 2 127.533 2 126.218 2 126 4.331 126 18.402m4-6.966c0 .268 5.512 3.726 12.25 7.683 6.738 3.958 19.225 11.329 27.75 16.38 8.525 5.052 18.2 10.699 21.5 12.548s10.219 5.99 15.376 9.199c5.157 3.21 9.619 5.592 9.916 5.295.298-.298.354-.705.125-.906-.617-.541-26.321-15.757-34.417-20.374-3.85-2.195-15.933-9.239-26.851-15.653C134.166 12.988 130 10.686 130 11.436m-19 12.942c0 .758-1.013 2.084-2.25 2.948s-2 1.593-1.694 1.622c1.204.113 6.877-4.682 6.264-5.295-1.105-1.105-2.32-.725-2.32.725m17.5 3.484c.55.57 4.825 3.351 9.5 6.179 14.444 8.74 15.606 9.378 14 7.695-.825-.865-6.675-4.574-13-8.242s-11.05-6.202-10.5-5.632m-39.168 2.952c-5.577 3.594-6.849 5.125-1.832 2.205 3.694-2.149 7.55-5.105 6.464-4.955-.255.035-2.34 1.273-4.632 2.75m16.954 7.035C94.568 45.605 88.664 49.889 93 47.491c3.609-1.996 27-17.619 27-18.033 0-.702.318-.896-13.714 8.391m30.214 2.664c3.553 2.815 14.633 8.687 15.242 8.078.325-.325.404-.704.175-.841-3.593-2.156-16.87-8.388-15.417-7.237m-26.993 1.476c-.361.585.082.722 1.086.337 1.067-.409 2.199.037 3.052 1.203.745 1.019 1.355 1.407 1.355.862 0-2.576-4.24-4.43-5.493-2.402M156 41.525c0 .288 1.152.963 2.56 1.498 2.904 1.104 2.304 3.386-.644 2.45-1.071-.34-1.916-.137-1.916.46 0 .587.675 1.067 1.5 1.067 1.698 0 2.011 1.566.5 2.5-.55.34-1 2.837-1 5.55 0 4.534.281 5.114 3.488 7.191 1.918 1.242 3.493 2.822 3.5 3.509.024 2.462 2.662 1.172 7.159-3.5 5.205-5.408 6.511-8.06 4.374-8.88-1.233-.473-1.201-.929.218-3.094 1.613-2.462 1.599-2.518-.454-1.866-3 .952-3.715-.932-1.232-3.245 2.792-2.601.85-3.762-3.044-1.82-2.682 1.339-3.444 1.298-7.998-.433-5.133-1.95-7.011-2.322-7.011-1.387m-77 4.564q-2.492 2.04-.5 1.012c3.262-1.686 5.07-3.071 4-3.063-.55.003-2.125.927-3.5 2.051m-8.284 4.762c-2.631 1.549-5.331 3.379-6 4.066-.669.688 1.597-.415 5.034-2.45 3.438-2.036 6.25-3.873 6.25-4.084 0-.613-.252-.495-5.284 2.468m13.534 1.341L78 56.216l.196 7.142.196 7.142.349-6.744.35-6.743 5.955-4.044C88.32 50.745 91 48.717 91 48.463c0-.638.223-.761-6.75 3.729m79.905-1.588c-2.43 1.702-2.911 6.169-.754 6.997.771.295 1.653 1.499 1.961 2.675.692 2.646 1.625 1.787 3.308-3.045 1.735-4.979 1.662-5.983-.515-7.148-1.329-.711-2.45-.565-4 .521m-51.414 2.77c-4.804 2.953-6.145 4.348-2.241 2.329 3.135-1.62 7.363-4.639 6.5-4.64-.275 0-2.192 1.04-4.259 2.311M164.5 53c-.399.646-.276 1.624.274 2.174q1 1 1.726-.174c.399-.646.276-1.624-.274-2.174q-1-1-1.726.174M48.441 56.555c-1.864 1.494-1.852 1.512.309.465 1.237-.6 2.25-1.3 2.25-1.555 0-.765-.519-.544-2.559 1.09M91 55.713c.825.306 2.175 1.058 3 1.671 1.303.97 1.32.887.128-.634-.755-.962-2.105-1.714-3-1.671-1.362.066-1.383.17-.128.634m13.441 2.842c-1.864 1.494-1.852 1.512.309.465 1.237-.6 2.25-1.3 2.25-1.555 0-.765-.519-.544-2.559 1.09M184 58.552c5.607 1.766 6.164 1.757 3-.052-1.375-.786-3.625-1.415-5-1.398-1.774.023-1.193.444 2 1.45m-97.333 1.115c-1.33 1.329-.622 4.286 1.267 5.298 2.993 1.602 3.778 1.222 1.202-.582-1.487-1.042-2.133-2.287-1.816-3.5.529-2.021.397-2.266-.653-1.216m12.194 2.392-2.361 2.06 2.75-1.675c1.513-.921 2.75-1.847 2.75-2.059 0-.781-.835-.335-3.139 1.674m-59.751.308c-.853 1.028-.821 1.628.128 2.415.957.795 1.262.464 1.262-1.367 0-2.835.058-2.792-1.39-1.048m14.555.302c-.596.595 5.06 5.369 6.279 5.299.306-.017-.344-.702-1.444-1.521-1.1-.82-2.494-2.149-3.099-2.953-.604-.805-1.386-1.176-1.736-.825m39.776 2.886c-1.864 1.494-1.852 1.512.309.465 1.237-.6 2.25-1.3 2.25-1.555 0-.765-.519-.544-2.559 1.09m87.698.359c1.299 1.053 2.553 1.723 2.788 1.49.514-.511-3.067-3.327-4.288-3.372-.473-.018.202.829 1.5 1.882m23.067.49c2.903 2.784 3.794 3.165 3.794 1.622 0-.536-1.463-1.704-3.25-2.596l-3.25-1.622zm-160.108.983C45.651 69.054 74 85.424 74 84.654c0-.218-5.287-3.546-11.75-7.396-11.678-6.956-19.296-11.098-18.152-9.871m73.402 3.472c-11.533 6.313-40.831 24.233-43.3 26.486l-2.3 2.098.3 32.252c.286 30.723.395 32.345 2.3 34.205 2.594 2.532 46.468 27.803 49.662 28.605 1.914.48 5.874-1.47 18.389-9.056 8.772-5.317 19.039-11.226 22.816-13.13s7.939-4.534 9.25-5.845l2.383-2.383V98.909l-2.314-2.314c-2.545-2.545-48.179-29.643-49.815-29.581-.204.008-3.521 1.738-7.371 3.845M61 68.43c0 .275.9.981 2 1.57s2 .845 2 .57-.9-.981-2-1.57-2-.845-2-.57m125.836 1.831c2.018 2.204 2.171 2.869 1.127 4.895-.998 1.937-.978 2.127.115 1.094.727-.687 2.105-1.25 3.063-1.25s2.049-.498 2.425-1.107c.461-.745-.011-.887-1.441-.433-1.501.477-2.125.248-2.125-.778 0-.798-1.238-2.244-2.75-3.211l-2.75-1.759zM66 71.537c0 .444 8.232 4.351 13.75 6.527 4.756 1.874 1.966-.3-3.5-2.728C68.428 71.861 66 70.962 66 71.537m-28.267 2.587c.679.684 1.486.991 1.793.683.308-.308-.247-.867-1.233-1.243-1.425-.542-1.54-.428-.56.56M226.158 79c0 1.375.227 1.938.504 1.25.278-.687.278-1.812 0-2.5-.277-.687-.504-.125-.504 1.25M187 83.319c0 1.866 1.631 3.087 2.42 1.811.307-.497-.112-1.459-.931-2.139-1.211-1.005-1.489-.944-1.489.328m28.427 2.202c1.06.802 2.172 1.214 2.471.914.628-.627-1.912-2.412-3.398-2.388-.55.009-.133.673.927 1.474m5.937 5.881c-4.475 2.403-10.863 6.22-14.195 8.483S200.662 104 200.114 104s-1.304.498-1.68 1.107c-1.32 2.135 3.969-.322 12.151-5.644 4.447-2.893 10.634-6.698 13.75-8.457 3.116-1.758 5.665-3.379 5.665-3.601 0-.636-.054-.611-8.636 3.997M205 90.059c0 .582.441.787.979.454.539-.333 2.001-.11 3.25.496 2.177 1.056 2.191 1.037.33-.454-2.234-1.79-4.559-2.043-4.559-.496M36.238 93.99c-1.542 2.469-2.958 2.534-5.659.26-2.077-1.748-2.077-1.748-.174.5 1.048 1.237 2.68 2.25 3.628 2.25 1.984 0 4.321-2.439 3.808-3.976-.191-.574-.912-.139-1.603.966m156.429 2.677c-1.347 1.346-.609 2.131 1.489 1.582 1.478-.387 1.932-.2 1.441.593-.421.682-.094 1.158.797 1.158 2.115 0 6.606-2.149 6.606-3.161 0-1.146-.68-1.056-3.014.402-1.581.987-2.391.987-3.972 0-2.302-1.438-2.457-1.464-3.347-.574M218 96.81c0 1.289 3.91 4.614 4.606 3.917.327-.327.299-1.071-.062-1.655-.937-1.516-4.544-3.312-4.544-2.262m8.079 2.858c-.157 2.328 1.118 4.194 2.504 3.662 1.835-.704 1.835-2.33 0-2.33-.779 0-1.643-.562-1.921-1.25-.347-.861-.529-.886-.583-.082M185.5 101c-.34.55-.168 1 .382 1s1.278-.45 1.618-1 .168-1-.382-1-1.278.45-1.618 1m6.007-.011c-.35.566.051.734.941.393 1.732-.665 2.049-1.382.611-1.382-.518 0-1.216.445-1.552.989M38 102.271c0 1.86 2.153 2.758 6.332 2.639l3.168-.09-3.5-1c-1.925-.55-4.062-1.465-4.75-2.033-.904-.746-1.25-.613-1.25.484m148.101 1.197c-2.153.779-2.962 1.5-2.206 1.967 1.07.661 6.105-1.779 6.105-2.958 0-.262-.113-.423-.25-.358-.137.066-1.78.673-3.649 1.349m5.525 2.003c-2.651 2.456-3.521 5.529-1.567 5.529.582 0 .779-.453.436-1.008-.677-1.096.921-3.017 3.883-4.668 1.067-.595 1.445-1.315.876-1.667-.551-.341-2.184.476-3.628 1.814m27.426-.418c.796.504 2.686.923 4.198.932L226 106l.139 12.75c.077 7.013.459 24 .849 37.75.686 24.206.706 23.803.611-12.668-.055-20.717-.324-37.868-.599-38.112-.275-.245-2.502-.701-4.948-1.014-2.878-.368-3.937-.245-3 .347M32.75 107.706c1.237.238 3.263.238 4.5 0 1.237-.239.225-.434-2.25-.434s-3.488.195-2.25.434M186 108c-.901.582-1.025.975-.309.985.655.008 1.469-.435 1.809-.985.767-1.242.421-1.242-1.5 0m12.717.616c-.338.339-2.101 1.006-3.916 1.483-3.216.844-3.2.855.613.42 3.509-.4 7.675-2.519 4.953-2.519-.569 0-1.311.277-1.65.616m-163.214 1.113c-3.916.59-4.469 1.641-4.488 8.521-.013 4.95.244 5.75 1.85 5.75 3.061 0 7.297 3.914 6.603 6.1-.885 2.789.402 2.307 6.532-2.443l5.5-4.262.289-6.947.288-6.948-6.788-.112c-3.734-.061-8.138.092-9.786.341m3.757 3.521c-3.17 4.024-2.076 9.75 1.862 9.75 2.71 0 5.965-3.582 5.203-5.727-1.593-4.489-5.117-6.495-7.065-4.023m166.859 3.274c-1.716 2.907-2.541 3.477-4.249 2.935-2.473-.785-4.29 1.33-2.743 3.194.649.782.673 1.869.067 3.033-1.328 2.549-2.049 13.196-.919 13.572 1.382.461 3.647 7.672 2.611 8.312-1.464.905-1.004 2.875.958 4.101 1.606 1.002 1.791.87 1.43-1.019-.266-1.391.46-2.993 2.021-4.46l2.437-2.289 3.028 2.549c3.636 3.059 4.24 3.145 4.24.605 0-1.069.8-2.532 1.779-3.25.978-.719 1.854-2.432 1.946-3.807s.382-4.957.644-7.96c.399-4.583.167-5.677-1.447-6.807-2.651-1.857-2.405-3.233.578-3.233 1.588 0 2.5-.564 2.5-1.545 0-1.191-.746-1.418-3.25-.991-2.845.486-3.499.157-5.25-2.634-2.771-4.418-3.923-4.474-6.381-.306M41.26 117.548c-.682.74-.842 1.592-.355 1.893s1.168-.189 1.514-1.09c.827-2.155.375-2.469-1.159-.803m-13.447 7.135c.721.289 1.584.253 1.916-.079s-.258-.568-1.312-.525c-1.165.048-1.402.285-.604.604M25 128c0 .55 2.137.993 4.75.985 3.435-.011 4.335-.284 3.25-.985-1.977-1.278-8-1.278-8 0m179.95 2.093c-2.372 4.432 1.065 9.04 5.122 6.868 2.447-1.309 2.701-7.45.346-8.354-2.793-1.072-4.321-.657-5.468 1.486M27 132.059c0 .582.45.781 1 .441s1-.816 1-1.059-.45-.441-1-.441-1 .477-1 1.059m60 3.946c0 3.584 4.309 13.458 7.084 16.233 1.609 1.609 3.855 2.762 5.379 2.762 3.166 0 9.354-3.032 11.873-5.818 1.82-2.012 1.717-2.09-11.25-8.564C88.783 134.975 87 134.346 87 136.005m70.5.271c-2.2 1.238-7.937 3.991-12.75 6.117s-8.75 4.24-8.75 4.697c0 1.422 4.34 4.998 7.872 6.488 7.309 3.082 11.174 1.126 15-7.59 1.845-4.204 3.792-12.003 2.989-11.976-.198.007-2.161 1.025-4.361 2.264M64 145c-1.293.835-1.266.971.191.985.93.008 1.969-.435 2.309-.985.782-1.266-.542-1.266-2.5 0m-11.743 1c.225.825 1.271 1.605 2.326 1.732 1.347.164 1.471.045.417-.4-.825-.347-1.872-1.127-2.326-1.732-.531-.707-.68-.565-.417.4m-19.507 1.662c.688.278 1.813.278 2.5 0 .688-.277.125-.504-1.25-.504s-1.937.227-1.25.504m25.953 1.936c-1.114 1.49-2.823 2.408-4.5 2.417-2.112.012-2.375.227-1.203.985 1.983 1.282 6.292 1.282 5.5 0-.34-.55-.194-1 .324-1 .812 0 2.474-4.062 1.886-4.608-.115-.108-1.019.885-2.007 2.206m155.374 1.991c-1.692 1.424-3.077 3.031-3.077 3.571 0 .541.707.276 1.571-.589 2.024-2.023 4.304-1.994 6.6.084 1.031.933 1.829 1.166 1.829.535 0-.616-.976-1.642-2.168-2.28l-2.168-1.16 2.418-1.34c2.353-1.303 2.359-1.34.245-1.375-1.196-.019-3.558 1.13-5.25 2.554M34 157.637c-2.475 1.944-4.725 3.791-5 4.104-1.014 1.156 6.121-3.264 8.765-5.43 4.513-3.695 1.096-2.492-3.765 1.326m177 2.173c0 2.861 7.37 4.274 8.393 1.608.936-2.44.662-3.117-.473-1.168-1.282 2.201-3.722 2.239-6.091.095-1.031-.933-1.829-1.166-1.829-.535M28.5 171c-1.65 1.093-2.55 1.98-2 1.971 1.003-.016 6.44-3.913 5.5-3.942-.275-.009-1.85.878-3.5 1.971m7 5c-.34.55-.064 1 .612 1 .677 0 2.166.784 3.309 1.743 1.509 1.265 1.414.991-.345-1-2.747-3.107-2.736-3.102-3.576-1.743m138.233 2.099c1.247 1.582 11.267 7.418 11.267 6.562 0-.255-1.501-1.349-3.336-2.432a251 251 0 0 1-6.25-3.831c-2.185-1.397-2.606-1.472-1.681-.299m-140.507 1.48c.95.991 1.942 1.587 2.205 1.324s-.514-1.074-1.726-1.803c-2.107-1.265-2.128-1.243-.479.479M28 181.378c0 .207.788.995 1.75 1.75 1.586 1.243 1.621 1.208.378-.378-1.307-1.666-2.128-2.195-2.128-1.372m9.656 2.167c.304.794.956 1.195 1.449.89 1.24-.766 1.126-1.132-.554-1.777q-1.45-.557-.895.887M26 186.378c0 .207.788.995 1.75 1.75 1.586 1.243 1.621 1.208.378-.378-1.307-1.666-2.128-2.195-2.128-1.372m8 .681c0 .582.45.781 1 .441s1-.816 1-1.059-.45-.441-1-.441-1 .477-1 1.059m190.559 1.409c1.067.808 2.365 1.483 2.882 1.5.518.018.068-.629-1-1.436-1.067-.808-2.365-1.483-2.882-1.5-.518-.018-.068.629 1 1.436M59 189c-.901.582-1.025.975-.309.985.655.008 1.469-.435 1.809-.985.767-1.242.421-1.242-1.5 0m98.75 3.737c2.887.202 7.613.202 10.5 0s.525-.367-5.25-.367-8.137.165-5.25.367m2.5 3-5.25.368v4.95c0 4.505.359 5.275 3.992 8.556 2.195 1.984 3.704 4.073 3.352 4.642-.872 1.41 5.461-2.378 7.109-4.253.725-.825 1.51-4.297 1.744-7.715.441-6.441-.175-7.527-4.029-7.1-.917.102-4.031.35-6.918.552M88 198c0 .55 1.152 1 2.559 1 1.451 0 2.292-.433 1.941-1-.34-.55-1.491-1-2.559-1S88 197.45 88 198m73.212-.237c-.672.224-1.212 2.133-1.212 4.285 0 2.924.52 4.16 2.107 5.009q4.339 2.325 4.454-5.026c.051-3.162-.322-3.943-2.037-4.271-1.155-.221-2.645-.22-3.312.003M162 202.5c0 1.375.45 2.5 1 2.5s1-1.125 1-2.5-.45-2.5-1-2.5-1 1.125-1 2.5m-78.305-.858c-1.912.557-1.74 3.035.18 2.608 1.524-.339 1.417.374-.491 3.287-1.559 2.379-1.528 3.671.19 7.963.73 1.824.642 1.871-1 .533-1.448-1.179-1.691-2.4-1.238-6.222.552-4.662-.673-7.553-1.727-4.076-1.32 4.356-.282 8.586 2.798 11.395 1.701 1.553 3.853 3.08 4.781 3.394.929.314 1.874 1.788 2.1 3.274l.412 2.702.15-2.715c.099-1.795-.527-3.077-1.85-3.785-1.1-.589-1.964-1.842-1.921-2.785.048-1.043.277-1.225.583-.465.613 1.517 7.697 1.664 10.404.215 1.603-.858 1.934-2.131 1.934-7.441 0-3.523-.412-6.66-.915-6.971-1.344-.831-12.288-1.524-14.39-.911M97.31 208.5c.005 3.3.192 4.529.415 2.732s.218-4.497-.01-6c-.229-1.503-.411-.032-.405 3.268m-11.747-.699c-1.432 4.512 2.045 6.691 5.996 3.758 1.55-1.151 1.719-1.806.84-3.25-1.584-2.602-6.065-2.935-6.836-.508m5.187 6.559c-1.513.565-2.75 1.389-2.75 1.833 0 1.368 4.686.891 5.926-.604 1.591-1.917.156-2.471-3.176-1.229m11.75 5.294c-2.058 4.925-1.874 5.472.519 1.547 1.107-1.815 2.455-3.026 2.996-2.691.542.334.985.18.985-.344s-.675-1.211-1.5-1.528c-1.037-.398-1.962.532-3 3.016m11.176-2.253c-.312.815.218 1.6 1.266 1.874 1.368.357 1.686.019 1.315-1.402-.579-2.214-1.825-2.441-2.581-.472m47.824 3.225c-10.12 5.691-12.306 7.838-3 2.948 6.197-3.257 12.87-7.602 11.5-7.488-.275.023-4.1 2.066-8.5 4.54m-15.807 1.286c-7.524 4.692-11.334 7.497-7.193 5.296 8.447-4.491 17.689-10.204 16.476-10.186-.812.012-4.989 2.213-9.283 4.89m30.179-3.248c-1.244 1.508-1.162 1.552.878.465 2.327-1.24 2.9-2.129 1.372-2.129-.482 0-1.495.749-2.25 1.664m-15.431 9.891c-1.864 1.494-1.852 1.512.309.465 1.238-.6 2.25-1.3 2.25-1.555 0-.765-.519-.544-2.559 1.09M133 229.5c-1.375.786-2.024 1.445-1.441 1.465.582.019 1.932-.626 3-1.433 2.469-1.868 1.68-1.884-1.559-.032m-44 .393c0 1.266 3.944 3.497 4.752 2.688.32-.32.088-.581-.514-.581s-1.802-.707-2.667-1.571c-.864-.865-1.571-1.106-1.571-.536M115 232c1.97 1.273 4.287 1.273 3.5 0-.34-.55-1.604-.993-2.809-.985-1.781.013-1.91.197-.691.985m-19.917 1.365c.23.2 1.542.9 2.917 1.555 2.357 1.122 2.389 1.102.559-.365-1.593-1.276-4.848-2.391-3.476-1.19M112 242.43c0 .275.9.981 2 1.57s2 .845 2 .57-.9-.981-2-1.57-2-.845-2-.57"/><path fill="#1976D2" fill-opacity=".593" fill-rule="evenodd" d="M123 2.785c-.825.281-3.381 1.795-5.68 3.363S112.907 9 112.623 9C112.16 9 87.11 24.132 70.41 34.5c-3.544 2.2-14.981 9.158-25.416 15.463s-20.103 12.51-21.484 13.79L21 66.081l.002 29.709c.001 16.341-.057 43.66-.129 60.71-.08 18.9.264 31.976.881 33.5.556 1.375 2.257 3.744 3.78 5.266 2.499 2.495 2.977 2.629 4.885 1.379C40.481 190.052 72.122 171 73.009 171c.62 0 .084-1.462-1.191-3.25-2.024-2.838-2.335-4.518-2.451-13.25-.369-27.634-.272-26.379-2.117-27.36-1.379-.733-3.867.648-11.75 6.526-5.5 4.101-11.011 8.406-12.246 9.566s-2.494 1.861-2.798 1.558c-.674-.675 1.525-2.932 6.381-6.549 2.014-1.501 3.888-2.972 4.163-3.268.275-.297 2.862-2.25 5.75-4.341s5.25-4.214 5.25-4.717c0-1.238-3.726-1.168-4.5.085-.966 1.563-2.5 1.174-2.5-.634 0-1.405.984-1.564 7-1.134l7 .501v-22.334l-4.25-2.66C52.654 92.168 37.772 83.337 32 80.306 26.358 77.343 23.462 75 25.442 75c1.263 0 15.17 7.369 22.466 11.903C55.93 91.889 68.502 99 69.296 99c.259 0 .71-.916 1.003-2.036.441-1.686-1.128-3.113-9.133-8.305-5.316-3.449-14.291-8.865-19.944-12.037-10.523-5.904-16.164-10.008-15.152-11.024.314-.315 2.339.719 4.5 2.298S40.8 74.149 48.5 78.282c7.7 4.134 16.499 9.066 19.554 10.96l5.554 3.443 5.446-3.794c2.995-2.086 5.797-3.815 6.226-3.842s9.429-5.254 20-11.615l19.22-11.567v-6.929c0-3.811-.06-6.931-.133-6.934-.073-.002-7.132 4.271-15.686 9.496S92.277 67 91.238 67s-2.921-1.098-4.182-2.44l-2.293-2.441 2.139-3.46c2.773-4.487 4.929-5.273 7.476-2.726 2.248 2.249 1.523 4.059-.841 2.098-1.628-1.351-4.537-.75-4.537.938C89 59.536 90.215 60 91.7 60c1.953 0 2.398.302 1.607 1.093-.79.79-1.676.78-3.2-.036-1.654-.885-2.107-.84-2.107.208C88 63.002 90.025 65 91.787 65c.762 0 3.26-1.297 5.55-2.883C103.844 57.612 121.843 47 122.978 47c.625 0 1.022-3.737 1.022-9.622v-9.622l-2.25 1.587c-1.237.873-11.393 7.565-22.568 14.872L78.864 57.5l.365 6.25c.278 4.742.042 6.25-.975 6.25-1.024 0-1.272-1.682-1.048-7.094l.294-7.093L99 41.808c11.825-7.703 22.287-14.706 23.25-15.562 1.345-1.195 1.75-3.141 1.75-8.401 0-3.798-.436-6.845-.979-6.845-.538 0-4.026 2.218-7.75 4.929S97.25 27.783 83.5 36.246C43.058 61.138 41.018 62.45 41.009 63.569c-.005.587 3.254 2.803 7.241 4.923 3.988 2.121 9.589 5.351 12.448 7.179s8.259 4.885 12 6.793c4.623 2.357 6.068 3.479 4.512 3.502-2.781.041-5.614-1.398-24.21-12.298-7.975-4.675-14.629-9.127-14.786-9.892-.331-1.607.152-1.93 40.157-26.825 38.563-23.997 45.349-28.712 45.97-31.939.564-2.938.595-2.887-1.341-2.227m-12.42 20.562c.554 1.444-7.263 6.908-28.08 19.628-18.165 11.101-27.286 17.062-28.689 18.753-1.066 1.284-.714 1.991 2.211 4.445C58.976 68.651 80.632 80 82.406 80c.327 0 .594-.611.594-1.358 0-.765-3.881-2.966-8.897-5.045C64.416 69.582 56 64.491 56 62.647c0-.641 4.837-4.079 10.75-7.639 14.211-8.558 27.852-17.05 38.078-23.705 6.675-4.344 8.609-5.185 9.75-4.239 2.221 1.844 1.837-1.378-.407-3.409-2.204-1.995-4.308-2.176-3.591-.308M127 38.059c0 .582.45.781 1 .441s1-.816 1-1.059-.45-.441-1-.441-1 .477-1 1.059m-18.42 4.056c-4.982 3.919-1.277 8.934 4.368 5.913 2.266-1.213 2.732-4.948.852-6.828-1.621-1.621-2.102-1.537-5.22.915m18.551 8.98c-.151 13.345-.627 12.498 10.369 18.45 17.625 9.54 20.031 10.914 31.218 17.835 4.997 3.091 9.93 5.62 10.962 5.62 1.517 0 4.455-1.485 7.213-3.644.215-.169-.227-1.106-.983-2.082-1.288-1.661-1.24-1.659.738.023 1.929 1.64 2.253 1.659 3.697.215.871-.871 1.81-1.455 2.087-1.298s1.305-.401 2.286-1.24c.98-.84 2.157-1.59 2.615-1.667s1.134-.475 1.5-.884.105-.42-.583-.024c-.717.412-1.25.186-1.25-.531 0-.694-.669-.386-1.502.691-1.058 1.367-1.338 1.463-.945.325.414-1.199-.037-1.586-1.747-1.5-1.318.066-2.317.759-2.332 1.616-.05 2.824-1.508 4.217-3.063 2.926-1.59-1.319-1.974-6.392-.411-5.426.55.34 1 .141 1-.441S187.55 79 187 79c-1.415 0-1.243-3.355.25-4.859 1.002-1.01.903-1.127-.5-.593-.963.366-1.801 1.63-1.864 2.809-.371 6.965-1.777 11.612-1.986 6.56l-.099-2.417L182 83c-.789 2.464-.802 2.467-.9.193-.093-2.147-.246-2.204-2.221-.821-1.469 1.029-2.822 1.22-4.397.621-1.252-.476-2.545-.597-2.873-.269-1.315 1.315-6.688.882-7.869-.634-1.074-1.377-1.024-1.421.377-.328 1.321 1.031 1.846.987 2.862-.237.685-.825.984-2.18.664-3.012-.619-1.613-4.643-2.134-4.643-.601 0 .501-.787.76-1.75.576a29 29 0 0 0-3.427-.411c-1.284-.059-1.598-.839-1.338-3.327.187-1.787.116-2.687-.156-2-.273.688-1.096 1.25-1.829 1.25s-1.592.563-1.907 1.25c-.316.688-.34.291-.054-.882.529-2.164-1.774-3.959-3.618-2.819-.494.305-.63-.143-.303-.997.384-1 .033-1.552-.988-1.552-.871 0-2.382-1.237-3.357-2.75s-2.898-4.023-4.273-5.579c-1.375-1.555-2.74-3.805-3.033-5s-1.509-2.606-2.702-3.138c-1.366-.608-2.314-2.091-2.558-4-.328-2.575-.411-2.436-.547.917-.233 5.751-2.223 3.148-3.153-4.124-.642-5.022-.763-4.226-.876 5.769m-17.881-7.433c-.687.278-1.25 1.173-1.25 1.991 0 2.121 4.394 1.297 4.813-.903.326-1.708-1.013-2.117-3.563-1.088m-11.224 6.284c-2.43 1.866-2.441 1.938-.604 3.968 1.762 1.947 1.948 1.966 3.193.327 1.421-1.873 1.869-6.255.635-6.219-.412.012-1.863.878-3.224 1.924M98.5 52c-.34.55-.141 1 .441 1S100 52.55 100 52s-.198-1-.441-1-.719.45-1.059 1m14.5 7.652c-3.711 2.708-3.62 2.71 2.25.032 3.818-1.742 4.749-2.723 2.5-2.635-.687.027-2.825 1.198-4.75 2.603M106 63c-.825.533-1.05.969-.5.969s1.675-.436 2.5-.969 1.05-.969.5-.969-1.675.436-2.5.969m40 2.409c0 .19.675.906 1.5 1.591.865.718 1.5.815 1.5.229 0-.558-.675-1.274-1.5-1.591s-1.5-.419-1.5-.229m83.214 2.665-4.179 3.073 1.573 3.677a670 670 0 0 1 2.087 4.918c.885 2.144-2.847 2.771-4.34.729-1.637-2.239-1.774-3.848-.248-2.905.759.469.881-.064.388-1.691-1.04-3.432-2.32-4.495-3.067-2.548-.351.914-1.009 1.432-1.464 1.151-.454-.281-1.115-.042-1.469.53s-.273.977.181.898q3.323-.576 3.324 1.939c0 1.015.787 2.521 1.75 3.348 2.063 1.772 5.594 3.172 4.813 1.909-.817-1.322 3.108-2.031 4.353-.786.779.779 1.084-1.506 1.084-8.116 0-5.06-.136-9.2-.303-9.2s-2.184 1.383-4.483 3.074M120.5 69.666c-4.148 2.193-22.74 13.247-36.25 21.553L73 98.136v65.686l3.029 2.549c1.667 1.402 7.629 5.124 13.25 8.27s12.931 7.371 16.243 9.389 9.093 5.299 12.846 7.291l6.825 3.621 4.153-2.108c2.285-1.159 7.68-4.364 11.989-7.122s13.759-8.251 21-12.208l13.165-7.195.808-7.904c.445-4.348.584-19.605.31-33.905l-.498-26-3.31-2.787c-5.256-4.425-45.657-27.741-47.952-27.673-.747.022-2.708.754-4.358 1.626m88.007 6.323c-.35.566.051.734.941.393 1.732-.665 2.049-1.382.611-1.382-.518 0-1.216.445-1.552.989m7.036.942c-.803 1.299.956 2.198 2.867 1.465 2.022-.776 2.041.296.039 2.297-1.4 1.401-1.666 1.397-2.75-.038-.659-.873-1.887-1.479-2.728-1.345-1.916.304-14.965 7.012-14.959 7.69.002.275 1.125 1.02 2.496 1.656 2.804 1.3 3.318.669.898-1.101-1.363-.997-.963-1.445 2.75-3.083 2.389-1.054 4.605-2.283 4.925-2.73.846-1.185 6.205-2.013 5.485-.848-.713 1.153 2.987 2.5 4.425 1.612.555-.343 1.009-.185 1.009.352s-.562 1.202-1.25 1.48c-.942.38-.951.524-.035.583.668.043 1.725-.875 2.35-2.042.795-1.486.806-1.917.036-1.442-.697.431-1.007-.164-.85-1.629.202-1.874-.185-2.261-2.059-2.059-1.332.143-2.047-.174-1.691-.75.339-.55.392-.999.117-.999s-.759.419-1.075.931m-15.036 4.058c-.35.566.051.734.941.393 1.732-.665 2.049-1.382.611-1.382-.518 0-1.216.445-1.552.989M169 82c-.901.582-1.025.975-.309.985.655.008 1.469-.435 1.809-.985.767-1.242.421-1.242-1.5 0m41.079 3.25q.078 2.254.65.75c.314-.825 1.066-1.831 1.671-2.235.678-.453.429-.74-.65-.75-1.176-.01-1.724.723-1.671 2.235m20.368-1.335c.311.503.101 1.144-.466 1.425-.567.28-.485.403.181.272 1.586-.31 2.346-2.612.862-2.612-.628 0-.888.412-.577.915M29.174 86.314c-3.516 3.744-2.711 7.84 2.023 10.288 2.664 1.378 3.194 1.372 5.379-.06C41.207 93.508 38.628 84 33.174 84c-1.004 0-2.804 1.042-4 2.314m175.431-.597c-1.427.366-1.573.685-.591 1.292 1.488.919 3.986.22 3.986-1.116 0-.94-.34-.958-3.395-.176m26.407 2.139c-1.369 1.454-2.372 3.011-2.228 3.461s-.537.689-1.512.534c-1.951-.311-8.272 2.231-8.272 3.326 0 .378.862.962 1.916 1.296s2.39 1.966 2.968 3.625c.988 2.832.919 2.974-1.119 2.327-1.195-.379-2.787-1.304-3.54-2.057-.752-.752-1.812-1.368-2.355-1.368-.544 0-.71-.45-.37-1s.168-1-.382-1-1.278.45-1.618 1-.141 1 .441 1 1.059.48 1.059 1.067c0 .605-.849.798-1.958.446-1.077-.341-3.214.049-4.75.869-2.244 1.197-2.4 1.476-.792 1.42 1.1-.038 2.9.277 4 .699l2 .768-2-1.709c-1.972-1.685-1.966-1.701.448-1.176 1.346.293 2.994.079 3.661-.474.818-.679 1.424-.665 1.861.041.356.577.059 1.083-.661 1.125s.266.652 2.191 1.356c4.711 1.722 5.738 1.129 5.609-3.235-.092-3.113.247-3.748 2.141-4.017 1.238-.175 2.25.162 2.25.75 0 .589-.675 1.07-1.5 1.07-2.212 0-1.824 2.102.5 2.71 2.582.675 2.57 2.328-.021 3.006-1.291.337-1.718.936-1.181 1.656 1.337 1.797 1.622 76.25.294 77.071-.608.376-1.297.093-1.53-.63-.318-.984-1.478-55.233-1.552-72.563-.006-1.237-.46-2.25-1.01-2.25s-.947.338-.882.75c.281 1.776-.184 3.25-1.024 3.25-.499 0-.685-1.013-.414-2.25.397-1.808.283-1.955-.578-.75-.925 1.296-1.073 1.262-1.087-.25-.008-1-.765-1.743-1.765-1.735-1.093.01-1.331.291-.635.75 2.186 1.44 2.595 5.055.683 6.039-2.068 1.065-4.055.582-6.548-1.589-1.11-.967-1.75-1.103-1.75-.37 0 .635.367 1.155.815 1.155s1.575 1.595 2.505 3.544c1.579 3.313 1.919 3.502 5.185 2.889 2.868-.538 3.495-.354 3.495 1.027 0 1.573-2.306 4.691-3.137 4.242-.206-.111.505.543 1.582 1.454 1.515 1.282 1.699 1.966.813 3.033-.666.803-.795 1.943-.308 2.73.487.789.26 2.728-.548 4.66-.76 1.82-1.105 4.031-.767 4.913.354.923-.08 2.115-1.021 2.806-.901.661-1.832 2.217-2.069 3.457-.371 1.935-.101 2.172 1.902 1.669 2.769-.695 4.284 1.068 2.011 2.34-1.436.803-1.438 1.008-.021 2.184 1.51 1.253 2.18 4.052.971 4.052-.326 0-1.705-.875-3.064-1.944-2.795-2.199-4.974-1.798-5.889 1.084-1.272 4.009 3.622 6.504 6.103 3.112 1.793-2.452 3.004-.781 1.626 2.244-1.351 2.965-4.144 3.231-8.28.788-2.904-1.715-3.805-3.284-1.885-3.284.58 0 .756-1.048.409-2.432-.438-1.745-.021-2.936 1.481-4.222 2.401-2.056 2.689-3.346.746-3.346-.74 0-2.142-.88-3.115-1.956-1.848-2.042-2.177-1.909-5.379 2.17-1.176 1.497-.951 1.943 1.833 3.636 1.791 1.089 2.716 2.211 2.124 2.577-.576.356-2.864-.554-5.083-2.023-3.862-2.555-5.02-4.677-3.176-5.817 1.393-.861-1.193-7.558-3.16-8.183-1.228-.389-1.501-.945-.854-1.738.522-.641 1.141-3.416 1.375-6.166s.785-5.805 1.225-6.789c.741-1.659.117-1.768-8.573-1.5l-9.372.289-.285 10.25-.285 10.25 5.785.014c6.502.015 10.285.789 10.285 2.103 0 .485-3.6.883-8 .883h-8v9.365c0 7.851-.323 9.776-2 11.908-2.251 2.862-2.473 3.727-.956 3.727.975 0 38.473 20.638 45.768 25.19l3.311 2.066 3.028-2.878c6.095-5.794 5.885-3.638 5.831-59.859-.027-28.335-.372-51.471-.766-51.413s-1.836 1.295-3.204 2.75m-201.478.107c-2.164 2.391-1.624 4.115 1.874 5.988 2.332 1.248 2.844 1.226 4.251-.182 1.148-1.147 1.39-2.402.857-4.434-.736-2.811-.751-2.816-1.782-.585-.572 1.237-1.421 2.25-1.887 2.25-1.337 0-.986-3.777.403-4.338.81-.327.689-.532-.345-.583-.877-.043-2.394.804-3.371 1.884m165.232.453c-.954.705-1.404 1.647-1 2.093s.217.516-.415.155c-.632-.362-3.782.822-7 2.63l-5.851 3.288-.31 11.581-.311 11.58 8.811.481c6.975.38 8.986.181 9.657-.956.542-.919 1.698-1.223 3.21-.843 1.791.449 2.65.046 3.549-1.666 1.179-2.247 1.174-2.249-.96-.354-1.388 1.232-2.146 1.459-2.146.643 0-.711-.655-1.011-1.5-.686-.825.316-1.5.139-1.5-.393 0-.533.536-.969 1.191-.969s.318-.676-.75-1.502c-1.912-1.481-1.911-1.494.059-.906 1.562.466 1.684.373.555-.427-.801-.567-3.581-.772-6.229-.458-3.882.46-4.904.253-5.423-1.1-.399-1.04-1.304-1.456-2.404-1.107-1.392.442-1.906-.189-2.431-2.987-.366-1.951-.361-4.04.012-4.642.372-.602.056-1.524-.702-2.048-.96-.665-.657-.75.997-.281 1.501.425 2.145.299 1.749-.342-.842-1.361 3.61-.218 4.72 1.212.516.664.631.42.296-.626-.535-1.67 2.686-4.681 6.45-6.03 1.69-.606 1.905-4.172.344-5.704-.568-.558-1.614-.415-2.668.364m16.742.571c-.336.543.238 1.897 1.274 3.01 1.454 1.56 1.885 1.677 1.885.513 0-.831-.375-1.51-.834-1.51s-.833-.477-.833-1.059.45-.781 1-.441 1 .141 1-.441c0-1.336-2.677-1.391-3.492-.072m5.162.43c-.299.78.052 1.646.78 1.925.904.347 1.164-.103.82-1.417-.601-2.298-.879-2.386-1.6-.508m-20.857 3.266c.721.289 1.584.253 1.916-.079s-.258-.568-1.312-.525c-1.165.048-1.402.285-.604.604m4 2c.721.289 1.584.253 1.916-.079s-.258-.568-1.312-.525c-1.165.048-1.402.285-.604.604m-3.303 2.333c.346.559 1.047.758 1.559.441 1.387-.857 1.129-1.457-.628-1.457-.857 0-1.276.457-.931 1.016m8.055.089c.262.425-.175 1.137-.973 1.584-.797.446-1.458 1.261-1.468 1.811s-.77 1.156-1.69 1.346c-1.163.241-1.434-.063-.892-1 .428-.74.393-.995-.077-.567-1.689 1.537-1.295 3.489.604 2.993 2.421-.633 7.327-6.939 5.399-6.939-.759 0-1.165.348-.903.772m-167.878 5.27c-.291.756-2.589 1.683-5.107 2.061l-4.58.687-.194 6.938c-.107 3.817-.22 8.402-.25 10.189-.031 1.787-.731 3.804-1.556 4.481-1.279 1.049-1.293 1.367-.094 2.156 1.039.683 1.349 2.903 1.186 8.494l-.221 7.57 3.314 2.021c1.823 1.111 4.08 2.022 5.015 2.024s2.107.73 2.603 1.617c.572 1.021.821-2.352.679-9.186-.204-9.835-.424-10.962-2.464-12.613-1.232-.998-2.865-1.814-3.629-1.814-1.946 0-1.735-1.653.312-2.439 2.218-.851 6.896 2.679 6.488 4.897-.354 1.924 1.498 4.553 3.183 4.52.621-.012 2.253-.954 3.628-2.093 2.093-1.734 2.175-1.975.5-1.477-1.118.331.096-1.218 2.75-3.511l4.75-4.105V105.08l-4.25-1.14c-2.337-.628-5.284-1.546-6.547-2.04-3.23-1.265-4.904-1.121-5.516.475m155.563-.155c-1.238.597-2.25 1.522-2.25 2.055 0 .569.539.522 1.304-.112.717-.595 2.404-1.522 3.75-2.059 1.345-.538 1.771-.975.946-.973s-2.512.493-3.75 1.089m22.75 2.839c0 .582.45.781 1 .441s1-.816 1-1.059-.45-.441-1-.441-1 .477-1 1.059m-186.281 1.556c-1.046 1.046-.883 16.385.174 16.385 1.431 0 2.112-2.785 2.037-8.332-.076-5.598-1.065-9.2-2.211-8.053m183.939 1.834q-.56 1.452.893.893c1.582-.607 1.994-2.342.556-2.342-.491 0-1.143.652-1.449 1.449m-31.115.482c-.317.512-.193 1.167.274 1.456s.85-.13.85-.931c0-1.686-.316-1.833-1.124-.525m9.957.069c-.34.55-.141 1 .441 1s1.059-.45 1.059-1-.198-1-.441-1-.719.45-1.059 1m9.5.941c0 .518.375 1.173.833 1.456.459.283.834-.14.834-.941s-.375-1.456-.834-1.456-.833.423-.833.941m-160.839 3.365c-.607.732-1.229 2.875-1.383 4.762-.248 3.063.011 3.465 2.405 3.742 4.62.534 5.661-5.205 1.562-8.607-1.176-.975-1.707-.954-2.584.103M220.5 114c.275 1.428-.153 2-1.498 2-1.036 0-2.112.369-2.39.819-.279.451.776.631 2.343.401 2.049-.301 2.979-1.093 3.309-2.819.294-1.542-.008-2.401-.845-2.401-.766 0-1.145.826-.919 2m-179.955-.073c-.364.59-.404 1.492-.088 2.004s.138 1.201-.397 1.532c-1.43.884-.125 3.499 1.445 2.897.737-.283 1.6-1.191 1.917-2.019.72-1.876-1.931-5.944-2.877-4.414M214 115.059c0 .582.45.781 1 .441s1-.816 1-1.059-.45-.441-1-.441-1 .477-1 1.059m-7.83 13.815c-1.833 1.162-1.075 6.178 1.139 7.525 1.444.879 2.099.71 3.25-.84 1.854-2.497 1.82-4.037-.13-5.988-1.786-1.785-2.387-1.884-4.259-.697M29 130c0 .55.638 1 1.418 1s2.243.309 3.25.687c1.613.605 1.668.485.46-1C32.641 128.86 29 128.372 29 130m35.252 5.5c.011 2.2.216 2.982.455 1.738s.23-3.044-.02-4-.446.062-.435 2.262m-36.237 2.187c.009 2.647.346 5.308.75 5.913.743 1.113 4.588 3.4 5.715 3.4.336 0 .478-3.037.316-6.75l-.296-6.75-3.25-.313-3.25-.314zM157 135.943c-2.475 1.433-8.437 4.341-13.25 6.461-4.812 2.12-8.75 4.214-8.75 4.652 0 1.679 7.411 6.805 11.245 7.778 5.134 1.303 8.183.152 10.752-4.059 2.737-4.487 5.209-12.213 4.823-15.074l-.32-2.365zm-70.482 1.307c1.113 5.337 5.658 14.76 7.867 16.307 3.327 2.331 8.724 1.76 13.8-1.459 2.517-1.596 4.874-3.384 5.237-3.972.624-1.009-23.973-14.126-26.487-14.126-.706 0-.854 1.151-.417 3.25m-31.913 4.58c-.32.518.556 1.159 1.946 1.425 1.595.304 2.391.07 2.156-.636-.484-1.453-3.351-2.004-4.102-.789m9.713.821c.358.358-.085 1.19-.985 1.847-2.163 1.582-.463 2.505 2.531 1.375 1.957-.739 2.151-1.15 1.128-2.383-.68-.82-1.707-1.49-2.281-1.49s-.751.293-.393.651m-13.141 2.992c.178.903 1.102 2.133 2.054 2.733 1.352.851 2.119.681 3.5-.774 1.701-1.793 1.683-1.844-.481-1.327-1.522.364-2.25.082-2.25-.869 0-.773-.708-1.406-1.573-1.406-.924 0-1.44.678-1.25 1.643m-4.68 2.362c-1.551 2.51 10.365 8.533 12.553 6.345.541-.541 1.396-2.417 1.898-4.167.722-2.519.614-3.183-.518-3.183-.786 0-1.43.418-1.43.929 0 1.626-3.072 4.071-5.117 4.071-1.086 0-3.07-1.096-4.409-2.435-1.34-1.34-2.679-2.042-2.977-1.56m-8.664 5.787c-.183.435-3.191 2.783-6.685 5.216-8.495 5.918-5.901 6.451 2.904.596 3.808-2.532 7.379-4.604 7.936-4.604S43 154.55 43 154c0-1.178-4.679-1.366-5.167-.208m-1.853 11.719c-9.601 5.965-13.404 9.208-9.774 8.335 2.079-.501 21.674-13.206 21.739-14.096.109-1.493-1.662-.64-11.965 5.761M59 160c0 .55.45 1 1 1s1-.45 1-1-.45-1-1-1-1 .45-1 1m5.25.25c.229.688 1.017 1.25 1.75 1.25s1.521-.562 1.75-1.25c.248-.744-.461-1.25-1.75-1.25s-1.998.506-1.75 1.25M54 163c0 .55.477 1 1.059 1s.781-.45.441-1-.816-1-1.059-1-.441.45-.441 1m-4.959 2.451c-.971 1.17-.656 2.139 1.627 5 3.218 4.033 2.99 3.959 6.332 2.049 2.468-1.411 2.472-1.43.25-1.465-1.237-.019-2.25-.485-2.25-1.035s-.9-1-2-1c-1.111 0-2-.667-2-1.5 0-.825.702-1.5 1.559-1.5s1.281-.45.941-1c-.894-1.447-3.066-1.227-4.459.451m6.959.95c0 .615.949 1.71 2.109 2.435 1.689 1.055 2.694 1.074 5.055.096 1.933-.801 2.609-1.559 1.963-2.205-1.418-1.418-9.127-1.693-9.127-.326m-14.25 4.357c-3.389 2.102-3.408 2.675-.189 5.894 3.451 3.451 2.16 4.413-1.376 1.025-3.308-3.169-5.253-3.364-7.607-.764-1.658 1.833-1.602 2.01 1.345 4.188 3.723 2.753 4.346 5.624.827 3.809-1.237-.638-3.299-2.116-4.581-3.285-2.296-2.094-2.351-2.097-3.75-.184-1.92 2.627-1.784 4.918.41 6.904 2.675 2.421 5.249 2.043 10.031-1.474l4.255-3.128-3.558-2.531c-3.439-2.447-4.542-4.212-2.634-4.212.508 0 2.261 1.125 3.895 2.5C41.915 182.106 44 182.71 44 181c0-.55.563-1.01 1.25-1.022s2.356-.872 3.708-1.911l2.458-1.889-3.708-2.188c-4.292-2.532-4.707-3.414-1.299-2.763 1.725.33 2.262.079 1.893-.883-.695-1.811-3.22-1.651-6.552.414m23.142 7.55c-16.4 9.956-34.365 20.935-34.679 21.195-.268.222 23.791 14.571 44.287 26.414 11.336 6.55 11.799 6.83 18.476 11.187C99.133 241.121 122.842 255 123.548 255c.249 0 .452-.86.452-1.91 0-2.357-9.146-8.357-24.5-16.072l-11-5.527-.305-4.748c-.256-3.989-.736-4.973-3-6.151-1.482-.771-3.737-2.518-5.011-3.882-2.068-2.214-2.248-3.109-1.679-8.345.351-3.226.681-6.36.733-6.964.053-.605 1.699-1.055 3.658-1 2.923.081 3.567-.26 3.584-1.901.013-1.29.8-2.111 2.218-2.313 2.841-.404 6.302 1.459 6.302 3.392 0 .864.72 1.383 1.684 1.215 2.098-.366 3.082 2.782 3.216 10.287.089 4.98-.169 5.725-2.4 6.919-1.375.736-2.5 1.937-2.5 2.669 0 .753-1.086 1.331-2.5 1.331-2.237 0-2.5.408-2.5 3.879 0 3.448.361 4.02 3.25 5.151 4.064 1.591 19.854 10.373 25.43 14.144 2.299 1.554 4.437 2.826 4.75 2.826.314 0 .552-3.937.529-8.75l-.041-8.75-5.091-2.39c-4.537-2.131-5.187-2.218-5.981-.8-2.811 5.025-5.614 5.739-10.596 2.701-3.712-2.263-3.814-2.725-1.719-7.74.843-2.016 1.307-4.252 1.032-4.968-.302-.787.247-1.303 1.387-1.303 2.931 0 5.05 1.08 5.05 2.576 0 .767-.622 1.123-1.426.814-1.75-.672-4.877 3.8-4.397 6.29.188.978 1.583 2.215 3.098 2.748 3.381 1.189 5.996-.944 6.321-5.155.291-3.774 2.129-8.273 3.379-8.273.564 0 1.025.614 1.025 1.365 0 1.782 3.629 6.366 6.078 7.677 1.847.988 1.922.557 1.922-11.016v-12.045l-3.75-2.584C112.089 192.775 84.501 177 82.829 177c-.978 0-6.401 2.909-12.053 6.463-16.051 10.096-20.713 12.725-21.88 12.336-.595-.199 6.194-5.053 15.087-10.788 14.397-9.284 15.975-10.568 14.402-11.719-.972-.711-2.067-1.292-2.434-1.292s-5.343 2.839-11.059 6.308M42 173.324c0 .684 3.728 4.676 4.367 4.676 1.482 0 .445-1.893-1.867-3.408-1.375-.901-2.5-1.472-2.5-1.268m129.248.476c-.84.551 2.458 3.046 10.019 7.582 13.439 8.061 16.445 10.239 15.474 11.21-.401.401-1.519.072-2.485-.731-.966-.804-7.232-4.726-13.925-8.716l-12.169-7.256-5.831 3.06c-3.207 1.682-8.756 4.832-12.331 6.998s-10.213 6.026-14.75 8.577l-8.25 4.638-.011 24.669c-.006 13.568-.297 26.399-.646 28.514l-.635 3.845 4.394-2.242c2.417-1.233 8.221-4.599 12.896-7.479s17.277-10.288 28.002-16.462c28.337-16.311 48.892-28.532 50.269-29.888.423-.416-4.077-3.478-10-6.805-38.362-21.546-37.534-21.143-40.021-19.514M27 182.99c0 2.354 2.139 5.01 4.035 5.01 1.081 0 1.94-.338 1.91-.75-.095-1.278-5.945-5.471-5.945-4.26m193 1.844c0 1.282 6.213 6.166 7.844 6.166 1.863 0 1.333-1.409-1.094-2.912a303 303 0 0 1-4.5-2.856c-1.341-.871-2.25-1.032-2.25-.398m-66.75 6.805c-.846.357-1.249 3.006-1.246 8.194l.004 7.667 5.391 4.164 5.391 4.163 3.58-2.433c1.969-1.337 4.043-3.297 4.608-4.354 1.186-2.215 1.613-12.274.592-13.927-.393-.636-.019-1.113.871-1.113 1.267 0 1.562 1.357 1.574 7.25.009 3.988.496 7.925 1.082 8.75.774 1.088.907-.668.485-6.401-.32-4.345-.582-8.904-.582-10.13 0-2.157-.334-2.232-10.25-2.294-5.637-.035-10.812.174-11.5.464m.75 3.188c0 .455 1.35.628 3 .386s3-.614 3-.826c0-.213-1.35-.387-3-.387s-3 .372-3 .827m18.591 18.681c-1.05.795-8.776 5.347-17.169 10.116-14.745 8.379-22.032 13.265-19.893 13.34.566.02 5.183-2.431 10.261-5.446s11.18-6.518 13.559-7.784c6.57-3.498 16.632-10.139 16.642-10.984.014-1.136-1.277-.848-3.4.758m3.15 3.373c-.237.906-8.822 6.816-19.077 13.133-10.256 6.318-18.651 11.809-18.655 12.205-.016 1.267 3.206-.41 16.491-8.583 7.15-4.398 15.674-9.638 18.942-11.643 6.538-4.011 7.638-5.477 4.685-6.25-1.272-.332-2.105.065-2.386 1.138m-31.776 5.539c-5.756 3.531-11.703 6.73-13.215 7.108-2.931.734-3.782 2.472-1.21 2.472 2.971 0 27.846-14.281 26.762-15.364-1.064-1.065-1.526-.849-12.337 5.784m-30.311-2.741c-.36.36-.654.987-.654 1.393 0 .797 9.004 6.325 9.392 5.766.498-.717-8.119-7.777-8.738-7.159m-1.056 11.716c.545 1.42 8.41 3.93 9.355 2.986.284-.285-.601-1.377-1.968-2.427-2.974-2.285-8.201-2.68-7.387-.559"/><path fill="#1976D2" fill-opacity=".93" fill-rule="evenodd" d="M41.507 62.989c-.35.566.051.734.941.393 1.732-.665 2.049-1.382.611-1.382-.518 0-1.216.445-1.552.989m59.914 18.094C89.364 88.279 78.037 95.277 76.25 96.634L73 99.102l.014 30.699c.007 16.884.285 31.712.617 32.95C74.157 164.715 86.422 174 88.49 174c.397 0 5.512 2.863 11.366 6.361 16.466 9.841 23.665 13.643 25.74 13.595 1.047-.025 5.504-2.261 9.904-4.969 15.517-9.551 21.081-12.8 28.978-16.924 12.728-6.646 11.522-2.447 11.522-40.107 0-37.757 1.094-33.797-11.5-41.655C154.814 84.258 125.452 68 124.222 68c-.484 0-10.745 5.887-22.801 13.083M29 75c.825.533 1.95.969 2.5.969s.325-.436-.5-.969-1.95-.969-2.5-.969-.325.436.5.969m8.333 2.667c0 .733.327 1.333.727 1.333s.956-.6 1.238-1.333c.281-.734-.046-1.334-.727-1.334s-1.238.6-1.238 1.334m10.622-.313c.471.471 1.661.401 2.659-.158 1.553-.869 1.434-.989-.853-.853-1.468.087-2.277.539-1.806 1.011M55 76.393c0 .216.698.661 1.552.989.89.341 1.291.173.941-.393-.587-.951-2.493-1.406-2.493-.596m-9.559 4.052C46.509 81.3 47.821 82 48.358 82c1.27 0 .703-.462-2.358-1.92-2.357-1.122-2.389-1.102-.559.365M58 80.893c0 .491.739 1.176 1.641 1.523 1.373.527 1.435.38.378-.893-1.44-1.735-2.019-1.916-2.019-.63m-21.557 3.014c.376.609 2.118 1.801 3.87 2.649 2.958 1.43 3.043 1.424 1.187-.081-3.037-2.463-5.886-3.909-5.057-2.568M45.5 84c.34.55.816 1 1.059 1s.441-.45.441-1-.477-1-1.059-1-.781.45-.441 1m24.077.718c1.142 1.12 3.167 2.373 4.5 2.784 2.977.917 2.544.499-2.577-2.488-3.542-2.067-3.762-2.101-1.923-.296m-15.816.494C54.94 86.632 63 91.432 63 90.713c0-.228-2.332-1.864-5.182-3.635-2.85-1.772-4.676-2.612-4.057-1.866M48 86.059c0 .582.45.781 1 .441s1-.816 1-1.059S49.55 85 49 85s-1 .477-1 1.059m18.243.531c1.047 1.096 2.052 1.442 2.517.867.425-.526.594-.86.375-.742s-1.351-.272-2.516-.867c-2.027-1.035-2.044-1.003-.376.742M30.2 88.2c-1.506 1.506-1.562 3.8-.093 3.8.609 0 .869-.62.578-1.378s-.024-1.883.593-2.5S32.175 87 31.9 87s-1.04.54-1.7 1.2m19.8-.807c0 .216.698.661 1.552.989.89.341 1.291.173.941-.393-.587-.951-2.493-1.406-2.493-.596m-14.921 2.19c.048 1.165.285 1.402.604.605.289-.722.253-1.585-.079-1.917s-.568.258-.525 1.312m9 0c.048 1.165.285 1.402.604.605.289-.722.253-1.585-.079-1.917s-.568.258-.525 1.312M55.5 90.631c1.1.862 4.016 2.451 6.48 3.531s4.826 2.498 5.25 3.151c.57.879 1.026.797 1.755-.313 1.436-2.189 1.33-2.396-2.235-4.353l-3.25-1.785 3 2.564c4.089 3.495 2.624 3.227-5.068-.926-6.877-3.713-9.231-4.455-5.932-1.869M72 89.592c0 .09.622.68 1.383 1.311 1.054.875 1.503.836 1.887-.163.305-.796-.238-1.311-1.384-1.311-1.037 0-1.886.073-1.886.163M40.5 91c.34.55.816 1 1.059 1s.441-.45.441-1-.477-1-1.059-1-.781.45-.441 1m8.233 3.124c.679.684 1.486.991 1.793.683.308-.308-.247-.867-1.233-1.243-1.425-.542-1.54-.428-.56.56m-19.4 3.332c0 .801.383 1.22.85.931s.591-.944.274-1.456c-.808-1.308-1.124-1.161-1.124.525M37.5 97c-.34.55-1.743 1-3.118 1s-2.243.416-1.929.924c.314.509.003 1.118-.691 1.355s-.287.271.905.077 2.356-.016 2.586.396c.231.411.291.209.134-.451-.157-.659.592-1.477 1.664-1.817S39 97.446 39 96.933c0-1.222-.724-1.189-1.5.067m4.313 1.683c.721.289 1.584.253 1.916-.079s-.258-.568-1.312-.525c-1.165.048-1.402.285-.604.604m19.392 1.692c.707.756 1.923 1.129 2.704.83.899-.345 1.157-.12.703.614-.453.732-.196.959.699.615 1.145-.439 1.452 1.131 1.608 8.235.258 11.676 1.081 12.099 1.081.554 0-8.28-.202-9.251-2.223-10.666-2.912-2.04-6.439-2.181-4.572-.182m4.608 23.308c.721.289 1.584.253 1.916-.079s-.258-.568-1.312-.525c-1.165.048-1.402.285-.604.604m20.312 13.531c.51 2.357 2.268 7.045 3.905 10.416 3.305 6.806 6.715 9.071 12.048 8.004 3.695-.739 12.103-6.575 11.624-8.069-.308-.963-22.881-12.817-26.854-14.103-1.454-.47-1.54-.021-.723 3.752m71.375-1.933c-2.2 1.242-8.401 4.233-13.78 6.648s-9.627 4.881-9.439 5.481c.6 1.914 9.717 7.499 13.358 8.182 5.333 1 7.818-.725 11.202-7.778 3.051-6.36 5.051-14.824 3.497-14.802-.461.007-2.638 1.028-4.838 2.269M66 136.559c0 .857.457 1.276 1.016.931.559-.346.758-1.047.441-1.559-.857-1.387-1.457-1.129-1.457.628m.367 3.691c.104.688.554 1.834 1 2.548s.587 1.88.314 2.591-.124 1.895.332 2.631c.512.83.722.035.549-2.09l-.42-5.18c-.078-.963-.552-1.75-1.054-1.75-.501 0-.826.563-.721 1.25m-11.034 4.155c0 .772.598 1.175 1.328.895s1.079-.912.774-1.405c-.846-1.369-2.102-1.065-2.102.51m1.072 4.845L54.5 151.5l2.25-1.905c2.114-1.79 2.705-2.595 1.905-2.595-.19 0-1.202 1.012-2.25 2.25m118.159 67.043c.376.986.935 1.541 1.243 1.233s.001-1.114-.683-1.793c-.988-.98-1.102-.865-.56.56M164 221.941c0 .518.445 1.216.989 1.552.566.35.734-.051.393-.941-.665-1.732-1.382-2.049-1.382-.611"/></svg>